<svg fill="#000000" xmlns="http://www.w3.org/2000/svg" xmlns:xlink="http://www.w3.org/1999/xlink" version="1.1" x="0px" y="0px" viewBox="0 0 100 100" enable-background="new 0 0 100 100" xml:space="preserve"><path d="M90.26,40.029c0-22.199-18.06-40.26-40.261-40.26C27.8-0.23,9.74,17.83,9.74,40.029v5.387h10.774v-5.387  c0-16.258,13.227-29.486,29.486-29.486S79.487,23.77,79.487,40.029S66.259,69.515,50,69.515h-6.187l12.005-12.004l-7.617-7.617  L30.873,67.217l-7.623,7.615l0.004,0.004l-0.003,0.003l7.617,7.617l17.329,17.322l7.619-7.617L43.945,80.289H50  C72.2,80.289,90.26,62.228,90.26,40.029z"/></svg>