<?xml version="1.0" encoding="utf-8"?>
<!-- Generator: Adobe Illustrator 20.0.0, SVG Export Plug-In . SVG Version: 6.00 Build 0)  -->
<svg version="1.1" id="Layer_1" xmlns="http://www.w3.org/2000/svg" xmlns:xlink="http://www.w3.org/1999/xlink" x="0px" y="0px"
	 viewBox="0 0 24.6 16" style="enable-background:new 0 0 24.6 16;" xml:space="preserve">
<style type="text/css">
	.st0{fill:#231F20;}
</style>
<g>
	<path class="st0" d="M0,0v16h24.6V0H0z M7.9,10.3c0.4,0.5,1,0.7,1.8,0.7c0.3,0,0.7,0,1-0.1c0.3-0.1,0.6-0.2,1-0.3v1.1
		c-0.6,0.2-1.3,0.3-2.1,0.3c-1.1,0-2-0.3-2.6-1S6.1,9.3,6.1,8c0-0.8,0.1-1.5,0.4-2.1c0.3-0.6,0.7-1.1,1.3-1.4C8.4,4.2,9,4,9.8,4
		s1.5,0.2,2.2,0.5l-0.5,1.1c-0.3-0.1-0.5-0.2-0.8-0.3c-0.4-0.1-0.7-0.2-1-0.2C9,5.1,8.4,5.4,8,5.9S7.3,7.2,7.3,8.1
		C7.3,9.1,7.5,9.8,7.9,10.3z M14.4,10.3c0.4,0.5,1,0.7,1.8,0.7c0.3,0,0.7,0,1-0.1c0.3-0.1,0.6-0.2,1-0.3v1.1
		c-0.6,0.2-1.3,0.3-2.1,0.3c-1.1,0-2-0.3-2.6-1s-0.9-1.7-0.9-3c0-0.8,0.1-1.5,0.4-2.1c0.3-0.6,0.7-1.1,1.3-1.4
		c0.6-0.3,1.2-0.5,2-0.5s1.5,0.2,2.2,0.5L18,5.6c-0.3-0.1-0.5-0.2-0.8-0.3c-0.4-0.1-0.7-0.2-1-0.2c-0.7,0-1.3,0.3-1.7,0.8
		s-0.7,1.3-0.7,2.2C13.8,9.1,14,9.8,14.4,10.3z"/>
</g>
</svg>
