<?xml version="1.0" encoding="utf-8"?>
<!-- Generator: Adobe Illustrator 20.0.0, SVG Export Plug-In . SVG Version: 6.00 Build 0)  -->
<svg version="1.1" id="Layer_1" xmlns="http://www.w3.org/2000/svg" xmlns:xlink="http://www.w3.org/1999/xlink" x="0px" y="0px"
	 viewBox="0 0 48.3 60" style="enable-background:new 0 0 48.3 60;" xml:space="preserve">
<g id="XMLID_5_">
	<path id="XMLID_2_" d="M44.6,29L1.8,5.2C1.3,5,0.9,4.9,0.5,5.1C0.2,5.4,0,5.7,0,6.3v47.4c0,0.6,0.2,0.9,0.5,1.2
		c0.4,0.2,0.8,0.2,1.3-0.1L44.6,31c0.5-0.3,0.7-0.6,0.7-1S45.1,29.3,44.6,29z"/>
</g>
<path id="XMLID_1_" d="M47.7,50.8h-4.8c-0.3,0-0.6-0.3-0.6-0.6V9.8c0-0.3,0.3-0.6,0.6-0.6h4.8c0.3,0,0.6,0.3,0.6,0.6v40.4
	C48.3,50.6,48,50.8,47.7,50.8z"/>
</svg>
