<?xml version="1.0" encoding="utf-8"?>
<!-- Generator: Adobe Illustrator 20.0.0, SVG Export Plug-In . SVG Version: 6.00 Build 0)  -->
<svg version="1.1" id="Layer_1" xmlns="http://www.w3.org/2000/svg" xmlns:xlink="http://www.w3.org/1999/xlink" x="0px" y="0px"
	 viewBox="0 0 60 48.6" style="enable-background:new 0 0 60 48.6;" xml:space="preserve">
<title>volume-on</title>
<g>
	<path d="M31.7,18.6c-1-0.4-2.1,0-2.5,1s0,2.1,1,2.6c0.5,0.2,1,0.7,1.2,1.2c0.5,1.2,0,2.6-1.2,3.1c-0.7,0.3-1.2,1-1.2,1.8
		c0,1.1,0.9,1.9,2,1.9c0.2,0,0.5,0,0.7-0.2c1.5-0.6,2.6-1.8,3.3-3.3C36.3,23.6,34.8,19.9,31.7,18.6z"/>
</g>
<path d="M26.3,3.7L9.4,14.9C9.3,15,9.1,15.1,9,15.1h-8C0.4,15.1,0,15.5,0,16v16.6c0,0.5,0.4,0.9,0.9,0.9h8c0.2,0,0.3,0,0.5,0.1
	L26.3,45c0.6,0.4,1.4-0.1,1.4-0.8V4.5C27.7,3.7,26.9,3.3,26.3,3.7z"/>
</svg>
