<?xml version="1.0" encoding="utf-8"?>
<!-- Generator: Adobe Illustrator 20.0.0, SVG Export Plug-In . SVG Version: 6.00 Build 0)  -->
<svg version="1.1" id="Layer_1" xmlns="http://www.w3.org/2000/svg" xmlns:xlink="http://www.w3.org/1999/xlink" x="0px" y="0px"
	 viewBox="0 0 60 48.6" style="enable-background:new 0 0 60 48.6;" xml:space="preserve">
<title>volume-on</title>
<path d="M43.9,0.2c-1-0.4-2.1,0-2.6,1c-0.4,1,0,2.1,1,2.5c5.4,2.2,9.6,6.5,11.9,11.9c4.8,11.3-0.5,24.5-11.8,29.3
	c-0.7,0.3-1.2,1-1.2,1.8c0,1.1,0.9,1.9,2,1.9c0.3,0,0.5,0,0.7-0.2c6.3-2.7,11.3-7.7,13.9-14C63.6,21.1,57.3,5.8,43.9,0.2z"/>
<path d="M46.4,30.4c3.4-8-0.4-17.2-8.4-20.6c-1-0.4-2.1,0-2.6,1c-0.4,1,0,2.1,1,2.6c2.8,1.2,5.1,3.4,6.3,6.3
	c2.6,6-0.3,12.9-6.3,15.5c-0.7,0.3-1.2,1-1.2,1.8c0,1.1,0.9,1.9,1.9,1.9c0.3,0,0.5,0,0.8-0.2C41.8,37.2,44.8,34.1,46.4,30.4z"/>
<path d="M31.7,18.6c-1-0.4-2.1,0-2.5,1s0,2.1,1,2.6c0.5,0.2,1,0.7,1.2,1.2c0.5,1.2,0,2.6-1.2,3.1c-0.7,0.3-1.2,1-1.2,1.8
	c0,1.1,0.9,1.9,2,1.9c0.2,0,0.5,0,0.7-0.2c1.5-0.6,2.6-1.8,3.3-3.3C36.3,23.6,34.8,19.9,31.7,18.6z"/>
<path d="M26.3,3.7L9.4,14.9C9.3,15,9.1,15.1,9,15.1h-8C0.4,15.1,0,15.5,0,16v16.6c0,0.5,0.4,0.9,0.9,0.9h8c0.2,0,0.3,0,0.5,0.1
	L26.3,45c0.6,0.4,1.4-0.1,1.4-0.8V4.5C27.7,3.7,26.9,3.3,26.3,3.7z"/>
</svg>
