<?xml version="1.0" encoding="utf-8"?>
<!-- Generator: Adobe Illustrator 20.0.0, SVG Export Plug-In . SVG Version: 6.00 Build 0)  -->
<svg version="1.1" id="Layer_1" xmlns="http://www.w3.org/2000/svg" xmlns:xlink="http://www.w3.org/1999/xlink" x="0px" y="0px"
	 viewBox="0 0 24.6 16" style="enable-background:new 0 0 24.6 16;" xml:space="preserve">
<style type="text/css">
	.st0{fill:#231F20;}
</style>
<g>
	<path class="st0" d="M23.7,0.9v14H1.1v-14H23.7 M24.7-0.1H0.1v16h24.6V-0.1L24.7-0.1z"/>
</g>
<g>
	<path d="M9.8,5.1c-0.7,0-1.3,0.3-1.7,0.8S7.3,7.2,7.3,8.1c0,1,0.2,1.7,0.6,2.2c0.4,0.5,1,0.7,1.8,0.7c0.3,0,0.7,0,1-0.1
		s0.6-0.2,1-0.3v1.1c-0.6,0.2-1.3,0.3-2.1,0.3c-1.1,0-2-0.3-2.6-1s-0.9-1.7-0.9-3c0-0.8,0.1-1.5,0.4-2.1s0.7-1.1,1.3-1.4
		s1.2-0.5,2-0.5s1.5,0.2,2.2,0.5l-0.5,1.1c-0.3-0.1-0.5-0.2-0.8-0.3C10.3,5.2,10.1,5.1,9.8,5.1z"/>
	<path d="M16.2,5.1c-0.7,0-1.3,0.3-1.7,0.8s-0.7,1.3-0.7,2.2c0,1,0.2,1.7,0.6,2.2c0.4,0.5,1,0.7,1.8,0.7c0.3,0,0.7,0,1-0.1
		s0.6-0.2,1-0.3v1.1c-0.6,0.2-1.3,0.3-2.1,0.3c-1.1,0-2-0.3-2.6-1s-0.9-1.7-0.9-3c0-0.8,0.1-1.5,0.4-2.1c0.3-0.6,0.7-1.1,1.3-1.4
		s1.2-0.5,2-0.5c0.8,0,1.5,0.2,2.2,0.5l-0.5,1.1c-0.3-0.1-0.5-0.2-0.8-0.3C16.9,5.2,16.5,5.1,16.2,5.1z"/>
</g>
</svg>
