<?xml version="1.0" encoding="utf-8"?>
<!-- Generator: Adobe Illustrator 19.0.0, SVG Export Plug-In . SVG Version: 6.00 Build 0)  -->
<svg version="1.1" id="Layer_1" xmlns="http://www.w3.org/2000/svg" xmlns:xlink="http://www.w3.org/1999/xlink" x="0px" y="0px"
	 viewBox="0 0 60 60" style="enable-background:new 0 0 60 60;" xml:space="preserve">
<g id="XMLID_11_">
	<path id="XMLID_9_" d="M0.5,29.1c0.2-9.7,9.1-18.2,18.8-17.8c4.6-0.2,9,1.8,12.6,4.6c-1.5,1.7-3.1,3.4-4.8,4.9
		c-4.3-3-10.4-3.8-14.6-0.4C6.3,24.6,6,34.6,11.9,39.2c5.7,5.2,16.5,2.6,18.1-5.3c-3.6-0.1-7.2,0-10.8-0.1c0-2.1,0-4.3,0-6.4
		c6,0,12,0,18,0c0.4,5-0.3,10.4-3.4,14.5c-4.7,6.6-14.1,8.5-21.4,5.7C5,44.7-0.2,37,0.5,29.1z"/>
	<path id="XMLID_7_" d="M48.9,21.9c1.8,0,3.6,0,5.3,0c0,1.8,0,3.6,0,5.4c1.8,0,3.6,0,5.4,0c0,1.8,0,3.6,0,5.3c-1.8,0-3.6,0-5.4,0
		c0,1.8,0,3.6,0,5.4c-1.8,0-3.6,0-5.4,0c0-1.8,0-3.6,0-5.4c-1.8,0-3.6,0-5.4-0.1c0-1.8,0-3.6,0-5.3c1.8,0,3.6,0,5.4,0
		C48.8,25.5,48.8,23.7,48.9,21.9z"/>
</g>
</svg>
