<?xml version="1.0" encoding="utf-8"?>
<!-- Generator: Adobe Illustrator 19.0.0, SVG Export Plug-In . SVG Version: 6.00 Build 0)  -->
<svg version="1.1" id="Layer_1" xmlns="http://www.w3.org/2000/svg" xmlns:xlink="http://www.w3.org/1999/xlink" x="0px" y="0px"
	 viewBox="0 0 60 60" style="enable-background:new 0 0 60 60;" xml:space="preserve">
<path id="XMLID_1_" d="M48,41.6c-2.7,0-5.1,1.2-6.8,3L20.8,32.5c0.2-0.8,0.4-1.6,0.4-2.5c0-0.9-0.1-1.8-0.4-2.6l20.6-11.9
	c1.7,1.8,4,2.9,6.7,2.9c5.1,0,9.2-4.1,9.2-9.2S53.1,0,48,0s-9.2,4.1-9.2,9.2c0,0.9,0.1,1.8,0.4,2.6L18.6,23.7
	c-1.7-1.8-4-2.9-6.7-2.9c-5.1,0-9.2,4.1-9.2,9.2s4.1,9.2,9.2,9.2c2.7,0,5.1-1.2,6.8-3l20.5,12.1c-0.2,0.8-0.4,1.6-0.4,2.5
	c0,5.1,4.1,9.2,9.2,9.2s9.2-4.1,9.2-9.2S53.1,41.6,48,41.6z"/>
</svg>
