<?xml version="1.0" encoding="utf-8"?>
<!-- Generator: Adobe Illustrator 19.0.0, SVG Export Plug-In . SVG Version: 6.00 Build 0)  -->
<svg version="1.1" id="Layer_1" xmlns="http://www.w3.org/2000/svg" xmlns:xlink="http://www.w3.org/1999/xlink" x="0px" y="0px"
	 viewBox="0 0 60 60" style="enable-background:new 0 0 60 60;" xml:space="preserve">
<path id="XMLID_1_" d="M53.5,15.4c-1.7,0.8-3.6,1.2-5.6,1.5c2-1.2,3.5-3,4.2-5.3c-1.8,1.1-3.9,2-6.1,2.3c-1.8-1.8-4.2-3-7-3
	c-5.3,0-9.7,4.2-9.7,9.7c0,0.8,0.2,1.5,0.3,2.1c-8-0.5-15.2-4.2-19.9-10c-0.8,1.4-1.4,3-1.4,4.9c0,3.3,1.7,6.4,4.2,8
	c-1.5,0-3-0.5-4.4-1.2v0.2c0,4.7,3.3,8.6,7.7,9.4c-0.8,0.2-1.7,0.3-2.6,0.3c-0.6,0-1.2,0-1.8-0.2c1.2,3.8,4.9,6.7,8.9,6.7
	c-3.2,2.6-7.3,4.1-11.8,4.1c-0.8,0-1.5,0-2.3-0.2c4.2,2.7,9.4,4.4,14.7,4.4c17.7,0,27.4-14.7,27.4-27.4c0-0.5,0-0.9,0-1.2
	C50.6,19.1,52.1,17.4,53.5,15.4L53.5,15.4z"/>
</svg>
